<svg xmlns="http://www.w3.org/2000/svg" xmlns:xlink="http://www.w3.org/1999/xlink" preserveAspectRatio="xMidYMid" width="256" height="256" viewBox="0 0 256 256">
  <defs>
    <style>
      .cls-1 {
        fill: #fff;
        fill-rule: evenodd;
      }
    </style>
  </defs>
  <path d="M20.489,257.000 C20.489,257.000 16.560,228.743 31.118,219.716 C45.677,210.689 74.942,199.994 89.581,193.085 C108.951,183.942 106.588,158.996 106.588,158.996 C106.588,158.996 98.835,152.222 95.959,144.083 C93.083,135.943 91.707,133.430 91.707,133.430 C91.707,133.430 83.603,130.154 83.203,117.451 C82.905,107.981 87.455,106.799 87.455,106.799 C87.455,106.799 78.542,76.160 93.833,59.927 C107.137,45.804 154.238,40.429 168.240,65.254 C179.328,84.912 172.492,106.799 172.492,106.799 C172.492,106.799 177.981,112.140 176.744,119.582 C175.507,127.024 166.114,134.495 166.114,134.495 C166.114,134.495 163.531,149.840 159.737,153.670 C155.942,157.500 154.422,158.996 154.422,158.996 C154.422,158.996 149.210,177.838 165.051,189.889 C180.893,201.940 223.393,207.436 233.081,223.977 C242.769,240.518 239.459,254.869 239.459,254.869 L20.489,257.000 Z" class="cls-1"/>
</svg>
