<?xml version="1.0" encoding="UTF-8" standalone="no"?>
<svg width="41px" height="41px" viewBox="0 0 41 41" version="1.1" xmlns="http://www.w3.org/2000/svg" xmlns:xlink="http://www.w3.org/1999/xlink" xmlns:sketch="http://www.bohemiancoding.com/sketch/ns">
    <!-- Generator: Sketch 3.3.2 (12043) - http://www.bohemiancoding.com/sketch -->
    <title> </title>
    <desc>Created with Sketch.</desc>
    <defs></defs>
    <g id="Page-1" stroke="none" stroke-width="1" fill="none" fill-rule="evenodd" sketch:type="MSPage">
        <g id="-" sketch:type="MSArtboardGroup" fill="#FFFFFF">
            <path d="M21,15.5502525 L15.3432126,9.89346515 C13.9789185,8.52917103 11.7602333,8.52656326 10.3933983,9.89339828 C9.0293445,11.2574521 9.0265932,13.4763407 10.3934651,14.8432126 L16.0502525,20.5 L10.3934651,26.1567874 C9.02917103,27.5210815 9.02656326,29.7397667 10.3933983,31.1066017 C11.7574521,32.4706555 13.9763407,32.4734068 15.3432126,31.1065349 L21,25.4497475 L26.6567874,31.1065349 C28.0210815,32.470829 30.2397667,32.4734367 31.6066017,31.1066017 C32.9706555,29.7425479 32.9734068,27.5236593 31.6065349,26.1567874 L25.9497475,20.5 L31.6065349,14.8432126 C32.970829,13.4789185 32.9734367,11.2602333 31.6066017,9.89339828 C30.2425479,8.5293445 28.0236593,8.5265932 26.6567874,9.89346515 L21,15.5502525 Z" id="Rectangle-1" sketch:type="MSShapeGroup"></path>
        </g>
    </g>
</svg>